<?xml version="1.0" encoding="UTF-8" standalone="no"?>
<!DOCTYPE svg PUBLIC "-//W3C//DTD SVG 1.1//EN"
 "http://www.w3.org/Graphics/SVG/1.1/DTD/svg11.dtd">
<!-- Generated by graphviz version 2.43.0 (0)
 -->
<!-- Title: G Pages: 1 -->
<svg width="727pt" height="1149pt"
 viewBox="0.00 0.00 727.23 1148.67" xmlns="http://www.w3.org/2000/svg" xmlns:xlink="http://www.w3.org/1999/xlink">
<g id="graph0" class="graph" transform="scale(1 1) rotate(0) translate(4 1144.67)">
<title>G</title>
<polygon fill="white" stroke="transparent" points="-4,4 -4,-1144.67 723.23,-1144.67 723.23,4 -4,4"/>
<!-- 0 -->
<g id="node1" class="node">
<title>0</title>
<ellipse fill="none" stroke="black" cx="213" cy="-1116.62" rx="27" ry="24.08"/>
<text text-anchor="middle" x="213" y="-1110.42" font-family="Times,serif" font-size="24.00">0</text>
</g>
<!-- 1 -->
<g id="node2" class="node">
<title>1</title>
<ellipse fill="none" stroke="black" cx="213" cy="-960.54" rx="27" ry="24.08"/>
<text text-anchor="middle" x="213" y="-954.34" font-family="Times,serif" font-size="24.00">1</text>
</g>
<!-- 0&#45;&gt;1 -->
<g id="edge1" class="edge">
<title>0&#45;&gt;1</title>
<path fill="none" stroke="black" d="M213,-1092.56C213,-1066.69 213,-1024.5 213,-995"/>
<polygon fill="black" stroke="black" points="216.5,-994.77 213,-984.77 209.5,-994.77 216.5,-994.77"/>
</g>
<!-- 2 -->
<g id="node3" class="node">
<title>2</title>
<ellipse fill="none" stroke="black" cx="93" cy="-804.46" rx="27" ry="24.08"/>
<text text-anchor="middle" x="93" y="-798.26" font-family="Times,serif" font-size="24.00">2</text>
</g>
<!-- 0&#45;&gt;2 -->
<g id="edge2" class="edge">
<title>0&#45;&gt;2</title>
<path fill="none" stroke="black" d="M198.59,-1096.24C180.89,-1071.54 151.11,-1026.95 134,-984.58 114.27,-935.72 102.93,-875.33 97.37,-838.64"/>
<polygon fill="black" stroke="black" points="100.8,-837.89 95.89,-828.5 93.87,-838.9 100.8,-837.89"/>
</g>
<!-- 3 -->
<g id="node4" class="node">
<title>3</title>
<ellipse fill="none" stroke="black" cx="169" cy="-648.37" rx="27" ry="24.08"/>
<text text-anchor="middle" x="169" y="-642.17" font-family="Times,serif" font-size="24.00">3</text>
</g>
<!-- 0&#45;&gt;3 -->
<g id="edge3" class="edge">
<title>0&#45;&gt;3</title>
<path fill="none" stroke="black" d="M205.05,-1093.26C196.31,-1067.45 182.73,-1023.56 177,-984.58 160.9,-875.11 164.3,-743.39 167.12,-682.82"/>
<polygon fill="black" stroke="black" points="170.62,-682.86 167.61,-672.7 163.63,-682.52 170.62,-682.86"/>
</g>
<!-- 4 -->
<g id="node5" class="node">
<title>4</title>
<ellipse fill="none" stroke="black" cx="262" cy="-492.29" rx="27" ry="24.08"/>
<text text-anchor="middle" x="262" y="-486.09" font-family="Times,serif" font-size="24.00">4</text>
</g>
<!-- 0&#45;&gt;4 -->
<g id="edge4" class="edge">
<title>0&#45;&gt;4</title>
<path fill="none" stroke="black" d="M220.69,-1093.22C229.2,-1067.37 242.55,-1023.45 249,-984.58 277.22,-814.56 269,-606.97 264.28,-526.95"/>
<polygon fill="black" stroke="black" points="267.74,-526.29 263.64,-516.53 260.75,-526.72 267.74,-526.29"/>
</g>
<!-- 5 -->
<g id="node6" class="node">
<title>5</title>
<ellipse fill="none" stroke="black" cx="169" cy="-336.21" rx="27" ry="24.08"/>
<text text-anchor="middle" x="169" y="-330.01" font-family="Times,serif" font-size="24.00">5</text>
</g>
<!-- 0&#45;&gt;5 -->
<g id="edge5" class="edge">
<title>0&#45;&gt;5</title>
<path fill="none" stroke="black" d="M227.1,-1096.05C259.79,-1048.67 338,-923.02 338,-805.46 338,-805.46 338,-805.46 338,-647.37 338,-565.8 337.01,-539.89 298,-468.25 273.02,-422.38 227.28,-381.61 197.51,-358.17"/>
<polygon fill="black" stroke="black" points="199.62,-355.37 189.57,-352.02 195.34,-360.91 199.62,-355.37"/>
</g>
<!-- 1&#45;&gt;2 -->
<g id="edge6" class="edge">
<title>1&#45;&gt;2</title>
<path fill="none" stroke="black" d="M198.04,-940.34C177.03,-913.35 138.63,-864.04 114.53,-833.11"/>
<polygon fill="black" stroke="black" points="117.05,-830.64 108.14,-824.9 111.53,-834.94 117.05,-830.64"/>
</g>
<!-- 1&#45;&gt;3 -->
<g id="edge7" class="edge">
<title>1&#45;&gt;3</title>
<path fill="none" stroke="black" d="M209.73,-936.48C202.03,-882.2 182.73,-746.18 173.74,-682.82"/>
<polygon fill="black" stroke="black" points="177.16,-682 172.29,-672.59 170.23,-682.98 177.16,-682"/>
</g>
<!-- 1&#45;&gt;4 -->
<g id="edge8" class="edge">
<title>1&#45;&gt;4</title>
<path fill="none" stroke="black" d="M218.25,-936.48C223.98,-910.4 233.02,-866.62 238,-828.5 252.38,-718.53 258.64,-587.06 260.91,-526.64"/>
<polygon fill="black" stroke="black" points="264.41,-526.67 261.27,-516.55 257.41,-526.42 264.41,-526.67"/>
</g>
<!-- 1&#45;&gt;5 -->
<g id="edge9" class="edge">
<title>1&#45;&gt;5</title>
<path fill="none" stroke="black" d="M213.25,-936.34C213.66,-881.81 213.71,-741.31 205,-624.33 198.11,-531.81 182.43,-423.34 174.22,-370.1"/>
<polygon fill="black" stroke="black" points="177.68,-369.55 172.68,-360.2 170.76,-370.62 177.68,-369.55"/>
</g>
<!-- 2&#45;&gt;3 -->
<g id="edge10" class="edge">
<title>2&#45;&gt;3</title>
<path fill="none" stroke="black" d="M103.57,-782.03C116.67,-755.47 139.09,-710.02 153.97,-679.84"/>
<polygon fill="black" stroke="black" points="157.24,-681.13 158.52,-670.62 150.96,-678.04 157.24,-681.13"/>
</g>
<!-- 2&#45;&gt;4 -->
<g id="edge11" class="edge">
<title>2&#45;&gt;4</title>
<path fill="none" stroke="black" d="M94.12,-780.27C96.7,-744.69 105.19,-675.4 133,-624.33 157.98,-578.46 203.72,-537.7 233.49,-514.25"/>
<polygon fill="black" stroke="black" points="235.66,-516.99 241.43,-508.1 231.38,-511.46 235.66,-516.99"/>
</g>
<!-- 2&#45;&gt;5 -->
<g id="edge12" class="edge">
<title>2&#45;&gt;5</title>
<path fill="none" stroke="black" d="M94.4,-780.17C96.65,-745.91 101.67,-679.94 110,-624.33 123.95,-531.15 148.59,-422.56 161.15,-369.59"/>
<polygon fill="black" stroke="black" points="164.58,-370.3 163.5,-359.76 157.77,-368.68 164.58,-370.3"/>
</g>
<!-- 6 -->
<g id="node7" class="node">
<title>6</title>
<ellipse fill="none" stroke="black" cx="169" cy="-180.12" rx="27" ry="24.08"/>
<text text-anchor="middle" x="169" y="-173.92" font-family="Times,serif" font-size="24.00">6</text>
</g>
<!-- 2&#45;&gt;6 -->
<g id="edge13" class="edge">
<title>2&#45;&gt;6</title>
<path fill="none" stroke="black" d="M93.19,-780.21C94.12,-709.35 99.68,-490.07 133,-312.17 139.4,-277.98 150.37,-239.71 158.52,-213.39"/>
<polygon fill="black" stroke="black" points="161.95,-214.17 161.6,-203.58 155.27,-212.08 161.95,-214.17"/>
</g>
<!-- 7 -->
<g id="node8" class="node">
<title>7</title>
<ellipse fill="none" stroke="black" cx="169" cy="-24.04" rx="27" ry="24.08"/>
<text text-anchor="middle" x="169" y="-17.84" font-family="Times,serif" font-size="24.00">7</text>
</g>
<!-- 2&#45;&gt;7 -->
<g id="edge14" class="edge">
<title>2&#45;&gt;7</title>
<path fill="none" stroke="black" d="M81.97,-782.31C57.33,-733.05 0,-606.29 0,-493.29 0,-493.29 0,-493.29 0,-335.21 0,-216.17 97.17,-99.32 144.15,-49.79"/>
<polygon fill="black" stroke="black" points="146.82,-52.06 151.23,-42.42 141.78,-47.2 146.82,-52.06"/>
</g>
<!-- 3&#45;&gt;4 -->
<g id="edge15" class="edge">
<title>3&#45;&gt;4</title>
<path fill="none" stroke="black" d="M181.35,-626.91C197.47,-600.21 225.79,-553.28 244.22,-522.75"/>
<polygon fill="black" stroke="black" points="247.43,-524.21 249.6,-513.84 241.44,-520.59 247.43,-524.21"/>
</g>
<!-- 3&#45;&gt;5 -->
<g id="edge16" class="edge">
<title>3&#45;&gt;5</title>
<path fill="none" stroke="black" d="M169,-624.32C169,-570.03 169,-434.01 169,-370.66"/>
<polygon fill="black" stroke="black" points="172.5,-370.42 169,-360.42 165.5,-370.42 172.5,-370.42"/>
</g>
<!-- 4&#45;&gt;5 -->
<g id="edge17" class="edge">
<title>4&#45;&gt;5</title>
<path fill="none" stroke="black" d="M249.65,-470.83C233.53,-444.12 205.21,-397.2 186.78,-366.66"/>
<polygon fill="black" stroke="black" points="189.56,-364.51 181.4,-357.75 183.57,-368.12 189.56,-364.51"/>
</g>
<!-- 4&#45;&gt;6 -->
<g id="edge18" class="edge">
<title>4&#45;&gt;6</title>
<path fill="none" stroke="black" d="M255.31,-468.99C239.1,-414.91 197.64,-276.63 178.7,-213.47"/>
<polygon fill="black" stroke="black" points="181.98,-212.22 175.75,-203.65 175.27,-214.23 181.98,-212.22"/>
</g>
<!-- 4&#45;&gt;7 -->
<g id="edge19" class="edge">
<title>4&#45;&gt;7</title>
<path fill="none" stroke="black" d="M258.91,-468.38C251.38,-413.9 230.82,-272.5 205,-156.08 197.47,-122.13 186.67,-83.82 178.87,-57.44"/>
<polygon fill="black" stroke="black" points="182.15,-56.18 175.93,-47.6 175.44,-58.18 182.15,-56.18"/>
</g>
<!-- 5&#45;&gt;6 -->
<g id="edge20" class="edge">
<title>5&#45;&gt;6</title>
<path fill="none" stroke="black" d="M169,-312.14C169,-286.27 169,-244.08 169,-214.59"/>
<polygon fill="black" stroke="black" points="172.5,-214.35 169,-204.35 165.5,-214.35 172.5,-214.35"/>
</g>
<!-- 6&#45;&gt;7 -->
<g id="edge21" class="edge">
<title>6&#45;&gt;7</title>
<path fill="none" stroke="black" d="M169,-156.06C169,-130.19 169,-88 169,-58.5"/>
<polygon fill="black" stroke="black" points="172.5,-58.27 169,-48.27 165.5,-58.27 172.5,-58.27"/>
</g>
<!-- 8 -->
<g id="node9" class="node">
<title>8</title>
<ellipse fill="none" stroke="black" cx="445" cy="-1116.62" rx="27" ry="24.08"/>
<text text-anchor="middle" x="445" y="-1110.42" font-family="Times,serif" font-size="24.00">8</text>
</g>
<!-- 9 -->
<g id="node10" class="node">
<title>9</title>
<ellipse fill="none" stroke="black" cx="439" cy="-960.54" rx="27" ry="24.08"/>
<text text-anchor="middle" x="439" y="-954.34" font-family="Times,serif" font-size="24.00">9</text>
</g>
<!-- 8&#45;&gt;9 -->
<g id="edge22" class="edge">
<title>8&#45;&gt;9</title>
<path fill="none" stroke="black" d="M444.1,-1092.56C443.09,-1066.69 441.45,-1024.5 440.3,-995"/>
<polygon fill="black" stroke="black" points="443.79,-994.62 439.9,-984.77 436.8,-994.9 443.79,-994.62"/>
</g>
<!-- 10 -->
<g id="node11" class="node">
<title>10</title>
<ellipse fill="none" stroke="black" cx="452" cy="-804.46" rx="33.47" ry="24.08"/>
<text text-anchor="middle" x="452" y="-798.26" font-family="Times,serif" font-size="24.00">10</text>
</g>
<!-- 8&#45;&gt;10 -->
<g id="edge23" class="edge">
<title>8&#45;&gt;10</title>
<path fill="none" stroke="black" d="M451.77,-1093.17C459.19,-1067.28 470.62,-1023.31 475,-984.58 480.8,-933.26 469.61,-873.81 460.9,-837.95"/>
<polygon fill="black" stroke="black" points="464.24,-836.9 458.41,-828.05 457.45,-838.6 464.24,-836.9"/>
</g>
<!-- 9&#45;&gt;10 -->
<g id="edge24" class="edge">
<title>9&#45;&gt;10</title>
<path fill="none" stroke="black" d="M440.95,-936.47C443.13,-910.6 446.69,-868.41 449.18,-838.92"/>
<polygon fill="black" stroke="black" points="452.69,-838.94 450.04,-828.68 445.71,-838.35 452.69,-838.94"/>
</g>
<!-- 11 -->
<g id="node12" class="node">
<title>11</title>
<ellipse fill="none" stroke="black" cx="452" cy="-648.37" rx="33.47" ry="24.08"/>
<text text-anchor="middle" x="452" y="-642.17" font-family="Times,serif" font-size="24.00">11</text>
</g>
<!-- 10&#45;&gt;11 -->
<g id="edge25" class="edge">
<title>10&#45;&gt;11</title>
<path fill="none" stroke="black" d="M452,-780.39C452,-754.52 452,-712.33 452,-682.84"/>
<polygon fill="black" stroke="black" points="455.5,-682.6 452,-672.6 448.5,-682.6 455.5,-682.6"/>
</g>
<!-- 12 -->
<g id="node13" class="node">
<title>12</title>
<ellipse fill="none" stroke="black" cx="406" cy="-492.29" rx="33.47" ry="24.08"/>
<text text-anchor="middle" x="406" y="-486.09" font-family="Times,serif" font-size="24.00">12</text>
</g>
<!-- 10&#45;&gt;12 -->
<g id="edge26" class="edge">
<title>10&#45;&gt;12</title>
<path fill="none" stroke="black" d="M442.69,-781.22C432.46,-755.54 416.6,-711.76 410,-672.42 401.54,-622.02 402.29,-562.54 403.92,-526.39"/>
<polygon fill="black" stroke="black" points="407.41,-526.56 404.41,-516.39 400.42,-526.21 407.41,-526.56"/>
</g>
<!-- 13 -->
<g id="node14" class="node">
<title>13</title>
<ellipse fill="none" stroke="black" cx="494" cy="-492.29" rx="33.47" ry="24.08"/>
<text text-anchor="middle" x="494" y="-486.09" font-family="Times,serif" font-size="24.00">13</text>
</g>
<!-- 10&#45;&gt;13 -->
<g id="edge27" class="edge">
<title>10&#45;&gt;13</title>
<path fill="none" stroke="black" d="M461.46,-781.25C471.84,-755.59 487.84,-711.83 494,-672.42 501.89,-621.94 499.65,-562.48 497.04,-526.36"/>
<polygon fill="black" stroke="black" points="500.53,-526.07 496.26,-516.37 493.55,-526.61 500.53,-526.07"/>
</g>
<!-- 11&#45;&gt;12 -->
<g id="edge28" class="edge">
<title>11&#45;&gt;12</title>
<path fill="none" stroke="black" d="M445.21,-624.64C437.41,-598.5 424.54,-555.41 415.69,-525.75"/>
<polygon fill="black" stroke="black" points="418.95,-524.45 412.74,-515.87 412.25,-526.45 418.95,-524.45"/>
</g>
<!-- 11&#45;&gt;13 -->
<g id="edge29" class="edge">
<title>11&#45;&gt;13</title>
<path fill="none" stroke="black" d="M458.2,-624.64C465.3,-598.58 477,-555.65 485.08,-526"/>
<polygon fill="black" stroke="black" points="488.52,-526.69 487.78,-516.12 481.77,-524.85 488.52,-526.69"/>
</g>
<!-- 14 -->
<g id="node15" class="node">
<title>14</title>
<ellipse fill="none" stroke="black" cx="535" cy="-1116.62" rx="33.47" ry="24.08"/>
<text text-anchor="middle" x="535" y="-1110.42" font-family="Times,serif" font-size="24.00">14</text>
</g>
<!-- 15 -->
<g id="node16" class="node">
<title>15</title>
<ellipse fill="none" stroke="black" cx="625" cy="-1116.62" rx="33.47" ry="24.08"/>
<text text-anchor="middle" x="625" y="-1110.42" font-family="Times,serif" font-size="24.00">15</text>
</g>
<!-- 16 -->
<g id="node17" class="node">
<title>16</title>
<ellipse fill="none" stroke="black" cx="625" cy="-960.54" rx="33.47" ry="24.08"/>
<text text-anchor="middle" x="625" y="-954.34" font-family="Times,serif" font-size="24.00">16</text>
</g>
<!-- 15&#45;&gt;16 -->
<g id="edge30" class="edge">
<title>15&#45;&gt;16</title>
<path fill="none" stroke="black" d="M625,-1092.56C625,-1066.69 625,-1024.5 625,-995"/>
<polygon fill="black" stroke="black" points="628.5,-994.77 625,-984.77 621.5,-994.77 628.5,-994.77"/>
</g>
<!-- 17 -->
<g id="node18" class="node">
<title>17</title>
<ellipse fill="none" stroke="black" cx="686" cy="-804.46" rx="33.47" ry="24.08"/>
<text text-anchor="middle" x="686" y="-798.26" font-family="Times,serif" font-size="24.00">17</text>
</g>
<!-- 15&#45;&gt;17 -->
<g id="edge31" class="edge">
<title>15&#45;&gt;17</title>
<path fill="none" stroke="black" d="M633.71,-1093.28C643.4,-1067.49 658.76,-1023.62 667,-984.58 677.61,-934.31 682.42,-874.8 684.51,-838.6"/>
<polygon fill="black" stroke="black" points="688.01,-838.77 685.06,-828.6 681.02,-838.39 688.01,-838.77"/>
</g>
<!-- 18 -->
<g id="node19" class="node">
<title>18</title>
<ellipse fill="none" stroke="black" cx="587" cy="-648.37" rx="33.47" ry="24.08"/>
<text text-anchor="middle" x="587" y="-642.17" font-family="Times,serif" font-size="24.00">18</text>
</g>
<!-- 15&#45;&gt;18 -->
<g id="edge32" class="edge">
<title>15&#45;&gt;18</title>
<path fill="none" stroke="black" d="M615.54,-1093.41C605.16,-1067.76 589.16,-1024 583,-984.58 565.91,-875.28 576.41,-743.48 582.94,-682.86"/>
<polygon fill="black" stroke="black" points="586.44,-683.06 584.07,-672.73 579.49,-682.28 586.44,-683.06"/>
</g>
<!-- 16&#45;&gt;17 -->
<g id="edge33" class="edge">
<title>16&#45;&gt;17</title>
<path fill="none" stroke="black" d="M633.87,-937.14C644.26,-910.89 661.55,-867.21 673.35,-837.42"/>
<polygon fill="black" stroke="black" points="676.69,-838.48 677.12,-827.89 670.18,-835.9 676.69,-838.48"/>
</g>
<!-- 16&#45;&gt;18 -->
<g id="edge34" class="edge">
<title>16&#45;&gt;18</title>
<path fill="none" stroke="black" d="M622.17,-936.48C615.52,-882.2 598.86,-746.18 591.1,-682.82"/>
<polygon fill="black" stroke="black" points="594.53,-682.09 589.84,-672.59 587.59,-682.94 594.53,-682.09"/>
</g>
<!-- 19 -->
<g id="node20" class="node">
<title>19</title>
<ellipse fill="none" stroke="black" cx="679" cy="-648.37" rx="33.47" ry="24.08"/>
<text text-anchor="middle" x="679" y="-642.17" font-family="Times,serif" font-size="24.00">19</text>
</g>
<!-- 16&#45;&gt;19 -->
<g id="edge35" class="edge">
<title>16&#45;&gt;19</title>
<path fill="none" stroke="black" d="M626.3,-936.47C628.48,-902.2 633.71,-835.92 644,-780.42 650.33,-746.28 660.98,-708 668.87,-681.67"/>
<polygon fill="black" stroke="black" points="672.29,-682.44 671.85,-671.86 665.6,-680.41 672.29,-682.44"/>
</g>
<!-- 17&#45;&gt;18 -->
<g id="edge36" class="edge">
<title>17&#45;&gt;18</title>
<path fill="none" stroke="black" d="M672.44,-782.36C655.28,-755.65 625.62,-709.49 606.16,-679.19"/>
<polygon fill="black" stroke="black" points="609.06,-677.24 600.71,-670.72 603.17,-681.02 609.06,-677.24"/>
</g>
<!-- 17&#45;&gt;19 -->
<g id="edge37" class="edge">
<title>17&#45;&gt;19</title>
<path fill="none" stroke="black" d="M684.95,-780.39C683.78,-754.52 681.86,-712.33 680.52,-682.84"/>
<polygon fill="black" stroke="black" points="684.01,-682.43 680.06,-672.6 677.01,-682.75 684.01,-682.43"/>
</g>
</g>
</svg>
