<?xml version="1.0" encoding="UTF-8" standalone="no"?>
<!DOCTYPE svg PUBLIC "-//W3C//DTD SVG 1.1//EN"
 "http://www.w3.org/Graphics/SVG/1.1/DTD/svg11.dtd">
<!-- Generated by graphviz version 2.43.0 (0)
 -->
<!-- Title: G Pages: 1 -->
<svg width="406pt" height="368pt"
 viewBox="0.00 0.00 406.00 368.25" xmlns="http://www.w3.org/2000/svg" xmlns:xlink="http://www.w3.org/1999/xlink">
<g id="graph0" class="graph" transform="scale(1 1) rotate(0) translate(4 364.25)">
<title>G</title>
<polygon fill="white" stroke="transparent" points="-4,4 -4,-364.25 402,-364.25 402,4 -4,4"/>
<!-- 0 -->
<g id="node1" class="node">
<title>0</title>
<ellipse fill="none" stroke="black" cx="27" cy="-336.21" rx="27" ry="24.08"/>
<text text-anchor="middle" x="27" y="-330.01" font-family="Times,serif" font-size="24.00">0</text>
</g>
<!-- 1 -->
<g id="node2" class="node">
<title>1</title>
<ellipse fill="none" stroke="black" cx="27" cy="-180.12" rx="27" ry="24.08"/>
<text text-anchor="middle" x="27" y="-173.92" font-family="Times,serif" font-size="24.00">1</text>
</g>
<!-- 0&#45;&gt;1 -->
<g id="edge1" class="edge">
<title>0&#45;&gt;1</title>
<path fill="none" stroke="black" d="M27,-312.14C27,-286.27 27,-244.08 27,-214.59"/>
<polygon fill="black" stroke="black" points="30.5,-214.35 27,-204.35 23.5,-214.35 30.5,-214.35"/>
</g>
<!-- 2 -->
<g id="node3" class="node">
<title>2</title>
<ellipse fill="none" stroke="black" cx="135" cy="-336.21" rx="27" ry="24.08"/>
<text text-anchor="middle" x="135" y="-330.01" font-family="Times,serif" font-size="24.00">2</text>
</g>
<!-- 3 -->
<g id="node4" class="node">
<title>3</title>
<ellipse fill="none" stroke="black" cx="117" cy="-180.12" rx="27" ry="24.08"/>
<text text-anchor="middle" x="117" y="-173.92" font-family="Times,serif" font-size="24.00">3</text>
</g>
<!-- 2&#45;&gt;3 -->
<g id="edge2" class="edge">
<title>2&#45;&gt;3</title>
<path fill="none" stroke="black" d="M132.31,-312.14C129.27,-286.19 124.33,-243.84 120.88,-214.33"/>
<polygon fill="black" stroke="black" points="124.32,-213.62 119.68,-204.1 117.37,-214.44 124.32,-213.62"/>
</g>
<!-- 4 -->
<g id="node5" class="node">
<title>4</title>
<ellipse fill="none" stroke="black" cx="189" cy="-180.12" rx="27" ry="24.08"/>
<text text-anchor="middle" x="189" y="-173.92" font-family="Times,serif" font-size="24.00">4</text>
</g>
<!-- 2&#45;&gt;4 -->
<g id="edge3" class="edge">
<title>2&#45;&gt;4</title>
<path fill="none" stroke="black" d="M142.74,-313.13C151.93,-286.89 167.35,-242.9 177.84,-212.97"/>
<polygon fill="black" stroke="black" points="181.19,-214.01 181.19,-203.41 174.58,-211.69 181.19,-214.01"/>
</g>
<!-- 5 -->
<g id="node6" class="node">
<title>5</title>
<ellipse fill="none" stroke="black" cx="280" cy="-336.21" rx="27" ry="24.08"/>
<text text-anchor="middle" x="280" y="-330.01" font-family="Times,serif" font-size="24.00">5</text>
</g>
<!-- 6 -->
<g id="node7" class="node">
<title>6</title>
<ellipse fill="none" stroke="black" cx="261" cy="-180.12" rx="27" ry="24.08"/>
<text text-anchor="middle" x="261" y="-173.92" font-family="Times,serif" font-size="24.00">6</text>
</g>
<!-- 5&#45;&gt;6 -->
<g id="edge4" class="edge">
<title>5&#45;&gt;6</title>
<path fill="none" stroke="black" d="M277.16,-312.14C273.96,-286.19 268.73,-243.84 265.09,-214.33"/>
<polygon fill="black" stroke="black" points="268.53,-213.59 263.83,-204.1 261.58,-214.45 268.53,-213.59"/>
</g>
<!-- 7 -->
<g id="node8" class="node">
<title>7</title>
<ellipse fill="none" stroke="black" cx="288" cy="-24.04" rx="27" ry="24.08"/>
<text text-anchor="middle" x="288" y="-17.84" font-family="Times,serif" font-size="24.00">7</text>
</g>
<!-- 5&#45;&gt;7 -->
<g id="edge5" class="edge">
<title>5&#45;&gt;7</title>
<path fill="none" stroke="black" d="M283.92,-312.1C288.13,-285.99 294.55,-242.17 297,-204.17 300.28,-153.34 295.7,-94.33 291.96,-58.35"/>
<polygon fill="black" stroke="black" points="295.39,-57.52 290.83,-47.96 288.43,-58.28 295.39,-57.52"/>
</g>
<!-- 6&#45;&gt;7 -->
<g id="edge6" class="edge">
<title>6&#45;&gt;7</title>
<path fill="none" stroke="black" d="M265.04,-156.06C269.59,-130.11 277.01,-87.75 282.18,-58.25"/>
<polygon fill="black" stroke="black" points="285.7,-58.47 283.97,-48.02 278.8,-57.26 285.7,-58.47"/>
</g>
<!-- 8 -->
<g id="node9" class="node">
<title>8</title>
<ellipse fill="none" stroke="black" cx="371" cy="-336.21" rx="27" ry="24.08"/>
<text text-anchor="middle" x="371" y="-330.01" font-family="Times,serif" font-size="24.00">8</text>
</g>
<!-- 9 -->
<g id="node10" class="node">
<title>9</title>
<ellipse fill="none" stroke="black" cx="371" cy="-180.12" rx="27" ry="24.08"/>
<text text-anchor="middle" x="371" y="-173.92" font-family="Times,serif" font-size="24.00">9</text>
</g>
<!-- 8&#45;&gt;9 -->
<g id="edge7" class="edge">
<title>8&#45;&gt;9</title>
<path fill="none" stroke="black" d="M371,-312.14C371,-286.27 371,-244.08 371,-214.59"/>
<polygon fill="black" stroke="black" points="374.5,-214.35 371,-204.35 367.5,-214.35 374.5,-214.35"/>
</g>
</g>
</svg>
