<?xml version="1.0" encoding="UTF-8" standalone="no"?>
<!DOCTYPE svg PUBLIC "-//W3C//DTD SVG 1.1//EN"
 "http://www.w3.org/Graphics/SVG/1.1/DTD/svg11.dtd">
<!-- Generated by graphviz version 2.43.0 (0)
 -->
<!-- Title: G Pages: 1 -->
<svg width="365pt" height="993pt"
 viewBox="0.00 0.00 364.78 992.58" xmlns="http://www.w3.org/2000/svg" xmlns:xlink="http://www.w3.org/1999/xlink">
<g id="graph0" class="graph" transform="scale(1 1) rotate(0) translate(4 988.58)">
<title>G</title>
<polygon fill="white" stroke="transparent" points="-4,4 -4,-988.58 360.78,-988.58 360.78,4 -4,4"/>
<!-- 0 -->
<g id="node1" class="node">
<title>0</title>
<ellipse fill="none" stroke="black" cx="63" cy="-960.54" rx="27" ry="24.08"/>
<text text-anchor="middle" x="63" y="-954.34" font-family="Times,serif" font-size="24.00">0</text>
</g>
<!-- 1 -->
<g id="node2" class="node">
<title>1</title>
<ellipse fill="none" stroke="black" cx="27" cy="-804.46" rx="27" ry="24.08"/>
<text text-anchor="middle" x="27" y="-798.26" font-family="Times,serif" font-size="24.00">1</text>
</g>
<!-- 0&#45;&gt;1 -->
<g id="edge1" class="edge">
<title>0&#45;&gt;1</title>
<path fill="none" stroke="black" d="M57.69,-936.81C51.6,-910.75 41.57,-867.82 34.64,-838.17"/>
<polygon fill="black" stroke="black" points="38.02,-837.23 32.33,-828.29 31.2,-838.82 38.02,-837.23"/>
</g>
<!-- 2 -->
<g id="node3" class="node">
<title>2</title>
<ellipse fill="none" stroke="black" cx="99" cy="-804.46" rx="27" ry="24.08"/>
<text text-anchor="middle" x="99" y="-798.26" font-family="Times,serif" font-size="24.00">2</text>
</g>
<!-- 0&#45;&gt;2 -->
<g id="edge2" class="edge">
<title>0&#45;&gt;2</title>
<path fill="none" stroke="black" d="M68.31,-936.81C74.4,-910.75 84.43,-867.82 91.36,-838.17"/>
<polygon fill="black" stroke="black" points="94.8,-838.82 93.67,-828.29 87.98,-837.23 94.8,-838.82"/>
</g>
<!-- 3 -->
<g id="node4" class="node">
<title>3</title>
<ellipse fill="none" stroke="black" cx="90" cy="-648.37" rx="27" ry="24.08"/>
<text text-anchor="middle" x="90" y="-642.17" font-family="Times,serif" font-size="24.00">3</text>
</g>
<!-- 2&#45;&gt;3 -->
<g id="edge3" class="edge">
<title>2&#45;&gt;3</title>
<path fill="none" stroke="black" d="M97.65,-780.39C96.14,-754.52 93.68,-712.33 91.95,-682.84"/>
<polygon fill="black" stroke="black" points="95.43,-682.38 91.36,-672.6 88.45,-682.79 95.43,-682.38"/>
</g>
<!-- 4 -->
<g id="node5" class="node">
<title>4</title>
<ellipse fill="none" stroke="black" cx="109" cy="-492.29" rx="27" ry="24.08"/>
<text text-anchor="middle" x="109" y="-486.09" font-family="Times,serif" font-size="24.00">4</text>
</g>
<!-- 2&#45;&gt;4 -->
<g id="edge4" class="edge">
<title>2&#45;&gt;4</title>
<path fill="none" stroke="black" d="M105.09,-780.95C111.77,-755.01 122.07,-711.01 126,-672.42 131.22,-621.22 122.68,-561.74 115.93,-525.84"/>
<polygon fill="black" stroke="black" points="119.35,-525.07 114,-515.92 112.48,-526.41 119.35,-525.07"/>
</g>
<!-- 5 -->
<g id="node6" class="node">
<title>5</title>
<ellipse fill="none" stroke="black" cx="54" cy="-336.21" rx="27" ry="24.08"/>
<text text-anchor="middle" x="54" y="-330.01" font-family="Times,serif" font-size="24.00">5</text>
</g>
<!-- 2&#45;&gt;5 -->
<g id="edge5" class="edge">
<title>2&#45;&gt;5</title>
<path fill="none" stroke="black" d="M89.06,-781.78C77.95,-756.25 60.65,-712.28 54,-672.42 35.74,-563.03 44.67,-430.76 50.42,-370.28"/>
<polygon fill="black" stroke="black" points="53.92,-370.48 51.42,-360.18 46.95,-369.79 53.92,-370.48"/>
</g>
<!-- 6 -->
<g id="node7" class="node">
<title>6</title>
<ellipse fill="none" stroke="black" cx="136" cy="-336.21" rx="27" ry="24.08"/>
<text text-anchor="middle" x="136" y="-330.01" font-family="Times,serif" font-size="24.00">6</text>
</g>
<!-- 2&#45;&gt;6 -->
<g id="edge6" class="edge">
<title>2&#45;&gt;6</title>
<path fill="none" stroke="black" d="M107.83,-781.65C117.75,-756 133.32,-711.9 140,-672.42 158.5,-563.07 147.24,-430.78 140.28,-370.29"/>
<polygon fill="black" stroke="black" points="143.73,-369.7 139.08,-360.19 136.78,-370.53 143.73,-369.7"/>
</g>
<!-- 3&#45;&gt;4 -->
<g id="edge7" class="edge">
<title>3&#45;&gt;4</title>
<path fill="none" stroke="black" d="M92.84,-624.31C96.04,-598.36 101.27,-556 104.91,-526.5"/>
<polygon fill="black" stroke="black" points="108.42,-526.62 106.17,-516.26 101.47,-525.76 108.42,-526.62"/>
</g>
<!-- 4&#45;&gt;5 -->
<g id="edge8" class="edge">
<title>4&#45;&gt;5</title>
<path fill="none" stroke="black" d="M101.12,-469.22C91.73,-442.9 75.96,-398.73 65.28,-368.8"/>
<polygon fill="black" stroke="black" points="68.52,-367.48 61.87,-359.24 61.93,-369.84 68.52,-367.48"/>
</g>
<!-- 4&#45;&gt;6 -->
<g id="edge9" class="edge">
<title>4&#45;&gt;6</title>
<path fill="none" stroke="black" d="M113.04,-468.22C117.59,-442.28 125.01,-399.92 130.18,-370.42"/>
<polygon fill="black" stroke="black" points="133.7,-370.64 131.97,-360.18 126.8,-369.43 133.7,-370.64"/>
</g>
<!-- 7 -->
<g id="node8" class="node">
<title>7</title>
<ellipse fill="none" stroke="black" cx="100" cy="-180.12" rx="27" ry="24.08"/>
<text text-anchor="middle" x="100" y="-173.92" font-family="Times,serif" font-size="24.00">7</text>
</g>
<!-- 6&#45;&gt;7 -->
<g id="edge10" class="edge">
<title>6&#45;&gt;7</title>
<path fill="none" stroke="black" d="M130.69,-312.47C124.6,-286.41 114.57,-243.49 107.64,-213.84"/>
<polygon fill="black" stroke="black" points="111.02,-212.9 105.33,-203.95 104.2,-214.49 111.02,-212.9"/>
</g>
<!-- 8 -->
<g id="node9" class="node">
<title>8</title>
<ellipse fill="none" stroke="black" cx="172" cy="-180.12" rx="27" ry="24.08"/>
<text text-anchor="middle" x="172" y="-173.92" font-family="Times,serif" font-size="24.00">8</text>
</g>
<!-- 6&#45;&gt;8 -->
<g id="edge11" class="edge">
<title>6&#45;&gt;8</title>
<path fill="none" stroke="black" d="M141.31,-312.47C147.4,-286.41 157.43,-243.49 164.36,-213.84"/>
<polygon fill="black" stroke="black" points="167.8,-214.49 166.67,-203.95 160.98,-212.9 167.8,-214.49"/>
</g>
<!-- 9 -->
<g id="node10" class="node">
<title>9</title>
<ellipse fill="none" stroke="black" cx="172" cy="-24.04" rx="27" ry="24.08"/>
<text text-anchor="middle" x="172" y="-17.84" font-family="Times,serif" font-size="24.00">9</text>
</g>
<!-- 8&#45;&gt;9 -->
<g id="edge12" class="edge">
<title>8&#45;&gt;9</title>
<path fill="none" stroke="black" d="M172,-156.06C172,-130.19 172,-88 172,-58.5"/>
<polygon fill="black" stroke="black" points="175.5,-58.27 172,-48.27 168.5,-58.27 175.5,-58.27"/>
</g>
<!-- 10 -->
<g id="node11" class="node">
<title>10</title>
<ellipse fill="none" stroke="black" cx="273" cy="-960.54" rx="33.47" ry="24.08"/>
<text text-anchor="middle" x="273" y="-954.34" font-family="Times,serif" font-size="24.00">10</text>
</g>
<!-- 11 -->
<g id="node12" class="node">
<title>11</title>
<ellipse fill="none" stroke="black" cx="182" cy="-804.46" rx="33.47" ry="24.08"/>
<text text-anchor="middle" x="182" y="-798.26" font-family="Times,serif" font-size="24.00">11</text>
</g>
<!-- 10&#45;&gt;11 -->
<g id="edge13" class="edge">
<title>10&#45;&gt;11</title>
<path fill="none" stroke="black" d="M260.35,-938.12C244.68,-911.59 217.89,-866.22 200.06,-836.04"/>
<polygon fill="black" stroke="black" points="202.94,-834.03 194.84,-827.2 196.91,-837.59 202.94,-834.03"/>
</g>
<!-- 12 -->
<g id="node13" class="node">
<title>12</title>
<ellipse fill="none" stroke="black" cx="304" cy="-804.46" rx="33.47" ry="24.08"/>
<text text-anchor="middle" x="304" y="-798.26" font-family="Times,serif" font-size="24.00">12</text>
</g>
<!-- 10&#45;&gt;12 -->
<g id="edge14" class="edge">
<title>10&#45;&gt;12</title>
<path fill="none" stroke="black" d="M277.64,-936.47C282.88,-910.41 291.46,-867.8 297.4,-838.28"/>
<polygon fill="black" stroke="black" points="300.84,-838.93 299.38,-828.43 293.97,-837.54 300.84,-838.93"/>
</g>
<!-- 13 -->
<g id="node14" class="node">
<title>13</title>
<ellipse fill="none" stroke="black" cx="248" cy="-648.37" rx="33.47" ry="24.08"/>
<text text-anchor="middle" x="248" y="-642.17" font-family="Times,serif" font-size="24.00">13</text>
</g>
<!-- 10&#45;&gt;13 -->
<g id="edge15" class="edge">
<title>10&#45;&gt;13</title>
<path fill="none" stroke="black" d="M271.01,-936.35C268.78,-910.16 265.06,-866.27 262,-828.5 257.89,-777.78 253.33,-718.97 250.57,-682.97"/>
<polygon fill="black" stroke="black" points="254.02,-682.27 249.77,-672.57 247.04,-682.8 254.02,-682.27"/>
</g>
<!-- 14 -->
<g id="node15" class="node">
<title>14</title>
<ellipse fill="none" stroke="black" cx="309" cy="-492.29" rx="33.47" ry="24.08"/>
<text text-anchor="middle" x="309" y="-486.09" font-family="Times,serif" font-size="24.00">14</text>
</g>
<!-- 10&#45;&gt;14 -->
<g id="edge16" class="edge">
<title>10&#45;&gt;14</title>
<path fill="none" stroke="black" d="M288.73,-939.18C306.67,-914.56 334.94,-871.1 346,-828.5 374.25,-719.75 339.36,-585.68 320.11,-525.36"/>
<polygon fill="black" stroke="black" points="323.37,-524.07 316.94,-515.65 316.72,-526.25 323.37,-524.07"/>
</g>
<!-- 12&#45;&gt;13 -->
<g id="edge17" class="edge">
<title>12&#45;&gt;13</title>
<path fill="none" stroke="black" d="M295.86,-781.05C286.32,-754.81 270.44,-711.13 259.62,-681.33"/>
<polygon fill="black" stroke="black" points="262.86,-680.01 256.15,-671.81 256.28,-682.4 262.86,-680.01"/>
</g>
<!-- 12&#45;&gt;14 -->
<g id="edge18" class="edge">
<title>12&#45;&gt;14</title>
<path fill="none" stroke="black" d="M304.37,-780.4C305.25,-726.12 307.44,-590.1 308.46,-526.74"/>
<polygon fill="black" stroke="black" points="311.96,-526.56 308.63,-516.5 304.97,-526.44 311.96,-526.56"/>
</g>
<!-- 13&#45;&gt;14 -->
<g id="edge19" class="edge">
<title>13&#45;&gt;14</title>
<path fill="none" stroke="black" d="M256.87,-624.97C267.26,-598.72 284.55,-555.05 296.35,-525.25"/>
<polygon fill="black" stroke="black" points="299.69,-526.31 300.12,-515.72 293.18,-523.73 299.69,-526.31"/>
</g>
</g>
</svg>
